<svg width="18" height="13" viewBox="0 0 18 13" fill="none" xmlns="http://www.w3.org/2000/svg">
<path d="M6.40238 6.41803C7.8996 6.41803 9.11335 5.20429 9.11335 3.70706C9.11335 2.20984 7.8996 0.996094 6.40238 0.996094C4.90515 0.996094 3.69141 2.20984 3.69141 3.70706C3.69141 5.20429 4.90515 6.41803 6.40238 6.41803Z" stroke="#1E1E1E" stroke-width="1.2" stroke-linecap="round" stroke-linejoin="round"/>
<path d="M6.40417 9.06379C4.15847 9.06379 2.57399 9.27524 1.69433 9.69226C1.0403 10.0023 1.0403 10.2969 1.0403 10.512C1.0403 10.7273 1.0403 11.0221 1.69433 11.3323C2.5742 11.7495 4.15868 11.961 6.40417 11.961C8.64966 11.961 10.2344 11.7495 11.1142 11.3323C11.7685 11.022 11.7685 10.7273 11.7685 10.512C11.7685 10.2969 11.7685 10.0023 11.1144 9.69229C10.2346 9.27524 8.64987 9.06379 6.40417 9.06379ZM6.40417 8.02344C11.6137 8.02344 12.8088 9.13729 12.8088 10.512C12.8088 11.8868 11.6137 13.0014 6.40417 13.0014C1.19482 13.0014 0 11.8868 0 10.512C0 9.13729 1.19482 8.02344 6.40417 8.02344Z" fill="#1E1E1E"/>
<path d="M11.7734 3.30078H17.3393" stroke="#1E1E1E" stroke-width="1.2" stroke-linecap="round" stroke-linejoin="round"/>
<path d="M14.5547 0.519531V6.08539" stroke="#1E1E1E" stroke-width="1.2" stroke-linecap="round" stroke-linejoin="round"/>
</svg>
