<svg width="163" height="40" viewBox="0 0 163 40" fill="none" xmlns="http://www.w3.org/2000/svg">
<g clip-path="url(#clip0_4652_7502)">
<path d="M49.3536 21.4669C49.0886 21.6387 48.8127 21.793 48.5276 21.9289C48.1641 22.102 47.79 22.2519 47.4076 22.3779C46.9407 22.5287 46.4633 22.6457 45.9795 22.7279C45.3826 22.826 44.7785 22.8728 44.1736 22.8679C43.1738 22.8745 42.1799 22.7129 41.2336 22.3899C40.3433 22.0874 39.524 21.6066 38.8256 20.9769C38.1213 20.3324 37.5627 19.5448 37.1876 18.6669C36.7696 17.6655 36.5653 16.5878 36.5876 15.5029C36.5685 14.41 36.7684 13.3243 37.1756 12.3099C37.5397 11.417 38.0939 10.614 38.7996 9.9569C39.5076 9.31176 40.3419 8.82072 41.2496 8.5149C42.2276 8.18227 43.2547 8.01663 44.2877 8.0249C45.0729 8.01181 45.857 8.08661 46.6255 8.2479C47.1714 8.36172 47.6992 8.55015 48.1937 8.8079C48.5413 8.98394 48.8395 9.24375 49.0616 9.5639C49.229 9.81257 49.3214 10.1042 49.3276 10.4039C49.3255 10.7826 49.192 11.1488 48.9496 11.4399C48.7431 11.7116 48.5032 11.9561 48.2357 12.1679C47.8014 11.7886 47.3092 11.4813 46.7776 11.2579C46.0334 10.9476 45.2315 10.7997 44.4256 10.8239C43.8216 10.819 43.2209 10.9136 42.6476 11.1039C42.1142 11.2799 41.6262 11.5715 41.2186 11.9579C40.8036 12.361 40.4792 12.8478 40.2667 13.3859C40.0191 14.0334 39.9001 14.7229 39.9166 15.4159C39.8976 16.1331 40.0214 16.8469 40.2806 17.5159C40.5009 18.0639 40.8461 18.5528 41.2886 18.9439C41.7207 19.3191 42.2261 19.6003 42.7726 19.7699C43.3619 19.952 43.9758 20.0417 44.5926 20.0359C45.3622 20.0656 46.1297 19.937 46.8476 19.6579C47.2469 19.4918 47.635 19.3001 48.0096 19.0839L49.3536 21.4669Z" fill="#1E1E1E"/>
<path d="M53.428 2.50817C53.8695 2.51277 54.2959 2.67001 54.6346 2.95318C54.9733 3.23636 55.2035 3.62802 55.2863 4.06169C55.3691 4.49535 55.2992 4.9443 55.0885 5.3323C54.8779 5.7203 54.5394 6.02345 54.1307 6.19029C53.7219 6.35713 53.268 6.37737 52.846 6.24758C52.424 6.11779 52.0599 5.84597 51.8156 5.47826C51.5713 5.11055 51.4617 4.66961 51.5055 4.2303C51.5494 3.79099 51.7439 3.38038 52.0561 3.06817C52.2346 2.88632 52.4483 2.74285 52.6843 2.64655C52.9202 2.55026 53.1733 2.50317 53.428 2.50817ZM51.828 10.2942C51.8087 10.0833 51.8391 9.87077 51.9169 9.6738C51.9947 9.47683 52.1178 9.30089 52.276 9.16017C52.645 8.90561 53.0887 8.78236 53.5361 8.81017C53.8486 8.80673 54.1598 8.84918 54.46 8.93617C54.74 9.01951 54.9264 9.08017 55.0191 9.11817V22.8632H51.8271L51.828 10.2942Z" fill="#1E1E1E"/>
<path d="M57.5094 5.9246C57.4901 5.71361 57.5206 5.50104 57.5986 5.30404C57.6766 5.10705 57.7998 4.93117 57.9583 4.7906C58.3182 4.53919 58.7521 4.41593 59.1904 4.4406C59.5074 4.43845 59.8232 4.48086 60.1284 4.56659C60.4174 4.65059 60.6084 4.7126 60.7014 4.7486V8.4166H64.7613C65.2272 8.3698 65.6932 8.50527 66.0614 8.7946C66.1952 8.94427 66.2976 9.11928 66.3625 9.30926C66.4275 9.49924 66.4536 9.70033 66.4394 9.9006C66.4418 10.2003 66.3945 10.4984 66.2994 10.7826C66.2356 10.9778 66.1611 11.1695 66.0764 11.3566H60.6983V17.6026C60.6864 18.0085 60.7544 18.4129 60.8984 18.7926C61.0153 19.0818 61.2031 19.337 61.4444 19.5346C61.6826 19.7241 61.9599 19.858 62.2563 19.9266C62.5731 20.0018 62.8977 20.0394 63.2234 20.0386C63.7382 20.0432 64.2498 19.9579 64.7353 19.7866C65.0908 19.673 65.4298 19.5129 65.7434 19.3106L67.0323 21.4386C66.883 21.5506 66.673 21.6909 66.4023 21.8596C66.0849 22.05 65.75 22.2097 65.4023 22.3366C64.9739 22.4959 64.534 22.6223 64.0864 22.7146C63.5598 22.8209 63.0236 22.8725 62.4864 22.8686C61.8115 22.9185 61.1335 22.8314 60.4931 22.6124C59.8528 22.3935 59.2634 22.0473 58.7603 21.5946C58.3355 21.1507 58.0048 20.6254 57.7883 20.0504C57.5718 19.4754 57.4738 18.8625 57.5003 18.2486L57.5094 5.9246Z" fill="#1E1E1E"/>
<path d="M82.0093 8.54231C81.7042 8.45608 81.3884 8.41365 81.0713 8.41631C80.6308 8.39092 80.1953 8.51961 79.8394 8.78031C79.6834 8.91986 79.5618 9.09355 79.4841 9.28783C79.4064 9.48211 79.3747 9.69172 79.3914 9.90031V15.8903C79.4298 16.4187 79.3627 16.9494 79.1943 17.4517C79.0259 17.954 78.7594 18.4179 78.4103 18.8163C78.0542 19.1572 77.6318 19.4213 77.1694 19.5923C76.7071 19.7633 76.2145 19.8375 75.7223 19.8103C75.2235 19.8517 74.7216 19.7857 74.2505 19.6166C73.7794 19.4476 73.35 19.1794 72.9913 18.8303C72.3751 18.0961 72.0598 17.1556 72.1093 16.1983V8.72131C72.0153 8.68431 71.8253 8.62131 71.5363 8.53931C71.2311 8.45321 70.9153 8.41079 70.5983 8.41331C70.1578 8.38792 69.7223 8.51661 69.3663 8.77731C69.2105 8.91691 69.0889 9.09061 69.0112 9.28488C68.9335 9.47915 68.9018 9.68873 68.9183 9.89731V16.8423C68.9031 17.6775 69.0607 18.5069 69.3814 19.2783C69.6674 19.9587 70.1024 20.5662 70.6543 21.0563C71.2261 21.5499 71.8927 21.9215 72.6133 22.1483C73.4185 22.4063 74.2599 22.5339 75.1054 22.5263C76.0019 22.537 76.8916 22.3701 77.7233 22.0353C78.4211 21.7822 79.0294 21.3303 79.4733 20.7353C79.4938 21.5546 79.3848 22.372 79.1503 23.1573C78.9714 23.7419 78.6545 24.2749 78.2263 24.7113C77.8158 25.1089 77.3094 25.3934 76.7564 25.5373C76.1163 25.7039 75.4567 25.784 74.7953 25.7753C74.2668 25.7769 73.7386 25.7489 73.2133 25.6913C72.7186 25.6353 72.2753 25.5653 71.8833 25.4813C71.5424 25.4111 71.2055 25.3223 70.8743 25.2153C70.5943 25.122 70.389 25.0473 70.2583 24.9913L69.4453 27.3723C69.5753 27.4283 69.8003 27.5063 70.1193 27.6103C70.4383 27.7143 70.8413 27.8193 71.3373 27.9323C71.8333 28.0453 72.3963 28.1423 73.0313 28.2263C73.7277 28.3143 74.4293 28.3564 75.1314 28.3523C76.1632 28.3645 77.1915 28.2277 78.1843 27.9463C79.0693 27.7034 79.8826 27.2507 80.5554 26.6266C81.2282 26.0026 81.7406 25.2255 82.0493 24.3613C82.4299 23.2779 82.6101 22.1343 82.5813 20.9863V8.72431C82.49 8.68697 82.2993 8.62631 82.0093 8.54231Z" fill="#1E1E1E"/>
<path d="M85.0618 13.824C85.0437 13.014 85.2066 12.2101 85.5387 11.471C85.8396 10.82 86.2841 10.2456 86.8387 9.79104C87.416 9.32893 88.0766 8.98197 88.7847 8.76903C89.5742 8.52946 90.3956 8.41145 91.2207 8.41903C92.2923 8.40064 93.3545 8.62061 94.3307 9.06304C94.4005 9.58914 94.6591 10.072 95.0582 10.4217C95.4574 10.7714 95.97 10.9642 96.5007 10.9642C97.0314 10.9642 97.5441 10.7714 97.9432 10.4217C98.3424 10.072 98.601 9.58914 98.6708 9.06304C99.6265 8.6208 100.67 8.40063 101.723 8.41903C102.538 8.41239 103.35 8.5256 104.133 8.75503C104.838 8.95687 105.496 9.29979 106.065 9.76303C106.613 10.2204 107.054 10.7943 107.353 11.443C107.684 12.1824 107.846 12.9861 107.829 13.796V22.87H104.637V14.891C104.685 14.3964 104.633 13.8971 104.484 13.423C104.335 12.9489 104.092 12.5098 103.769 12.132C103.123 11.5573 102.278 11.2605 101.415 11.306C100.974 11.2936 100.536 11.3689 100.125 11.5275C99.7139 11.6862 99.3386 11.925 99.0208 12.23C98.6643 12.6382 98.3948 13.1148 98.2285 13.6305C98.0623 14.1463 98.0028 14.6905 98.0537 15.23V22.876H94.8607V15.23C94.9113 14.6906 94.8517 14.1466 94.6857 13.6309C94.5196 13.1152 94.2506 12.6386 93.8948 12.23C93.4221 11.7134 92.796 11.3622 92.1086 11.228C91.4213 11.0939 90.7091 11.1839 90.0768 11.4849C89.4445 11.7859 88.9255 12.2819 88.5962 12.8999C88.2669 13.5179 88.1448 14.2254 88.2477 14.918V22.872H85.0547L85.0618 13.824Z" fill="#1E1E1E"/>
<path d="M123.664 22.4209C123.478 22.4589 123.183 22.5009 122.782 22.5479C122.381 22.5949 121.909 22.6419 121.368 22.6879C120.827 22.7339 120.219 22.7759 119.547 22.8139C118.875 22.8519 118.175 22.8699 117.447 22.8699C116.245 22.8979 115.046 22.7709 113.877 22.4919C113.089 22.304 112.346 21.9613 111.692 21.4839C111.196 21.1127 110.817 20.6075 110.6 20.0279C110.405 19.4843 110.306 18.9112 110.306 18.3339C110.292 17.6453 110.411 16.9604 110.656 16.3169C110.893 15.7327 111.291 15.2278 111.804 14.8609C112.431 14.4271 113.141 14.1269 113.89 13.9789C114.922 13.7659 115.974 13.6673 117.028 13.6849C117.737 13.6849 118.409 13.7082 119.044 13.7549C119.679 13.8015 120.155 13.8435 120.472 13.8809C120.491 13.3219 120.381 12.7661 120.15 12.2569C119.952 11.8475 119.647 11.4992 119.268 11.2489C118.857 10.9938 118.399 10.8237 117.922 10.7489C117.348 10.6511 116.767 10.6042 116.186 10.6089C115.317 10.5792 114.45 10.7024 113.624 10.9729C113.173 11.1184 112.744 11.3257 112.35 11.5889C112.178 11.428 112.023 11.2497 111.888 11.0569C111.687 10.781 111.583 10.446 111.594 10.1049C111.596 9.83453 111.668 9.56938 111.803 9.33486C111.983 9.04621 112.24 8.81349 112.545 8.66286C112.994 8.43531 113.476 8.27943 113.973 8.20086C114.722 8.07699 115.481 8.02076 116.241 8.03286C117.253 8.02307 118.263 8.13113 119.251 8.35486C120.089 8.54044 120.883 8.88758 121.589 9.37686C122.249 9.85116 122.775 10.4881 123.116 11.2259C123.502 12.0976 123.689 13.0447 123.662 13.9979L123.664 22.4209ZM120.503 16.2049C120.316 16.1675 119.966 16.1115 119.453 16.0369C118.686 15.948 117.914 15.9103 117.143 15.9239C116.183 15.8529 115.223 16.0518 114.371 16.4979C114.081 16.6968 113.848 16.9682 113.696 17.285C113.543 17.6019 113.476 17.9531 113.502 18.3039C113.498 18.6211 113.56 18.9356 113.684 19.2279C113.818 19.5231 114.037 19.7714 114.314 19.9409C114.688 20.1657 115.101 20.3178 115.532 20.3889C116.165 20.5021 116.807 20.5536 117.45 20.5429C118.133 20.5511 118.815 20.5177 119.494 20.4429C119.994 20.3769 120.335 20.3269 120.503 20.2879V16.2049Z" fill="#1E1E1E"/>
<path d="M145.343 2.5082C145.784 2.51303 146.211 2.67045 146.549 2.95375C146.888 3.23706 147.118 3.62878 147.2 4.06243C147.283 4.49609 147.213 4.94496 147.002 5.33285C146.791 5.72075 146.453 6.02378 146.044 6.19049C145.635 6.35721 145.182 6.37735 144.76 6.24749C144.338 6.11764 143.974 5.84578 143.73 5.47808C143.485 5.11037 143.376 4.66947 143.42 4.2302C143.463 3.79094 143.658 3.38038 143.97 3.0682C144.149 2.88618 144.363 2.7426 144.599 2.6463C144.835 2.54999 145.088 2.503 145.343 2.5082ZM143.743 10.2942C143.724 10.0833 143.754 9.8708 143.832 9.67383C143.91 9.47686 144.033 9.30092 144.191 9.1602C144.56 8.90614 145.004 8.78293 145.451 8.8102C145.763 8.80677 146.075 8.84922 146.375 8.9362C146.655 9.0192 146.842 9.0802 146.935 9.1182V22.8632H143.743V10.2942Z" fill="#1E1E1E"/>
<path d="M162.777 22.4209C162.59 22.4582 162.296 22.5005 161.895 22.5479C161.494 22.5952 161.023 22.6419 160.481 22.6879C159.94 22.7345 159.333 22.7765 158.66 22.8139C157.987 22.8512 157.288 22.8699 156.56 22.8699C155.359 22.898 154.159 22.7709 152.99 22.4919C152.202 22.304 151.459 21.9614 150.805 21.4839C150.31 21.1125 149.931 20.6073 149.713 20.0279C149.518 19.4843 149.419 18.9112 149.419 18.3339C149.405 17.6453 149.524 16.9605 149.769 16.3169C150.006 15.7327 150.404 15.2278 150.917 14.8609C151.545 14.4272 152.255 14.127 153.003 13.9789C154.035 13.7659 155.087 13.6673 156.14 13.6849C156.849 13.6849 157.521 13.7082 158.156 13.7549C158.791 13.8015 159.267 13.8435 159.584 13.8809C159.603 13.322 159.493 12.7662 159.262 12.2569C159.064 11.8477 158.759 11.4994 158.38 11.2489C157.97 10.9939 157.512 10.8239 157.035 10.7489C156.462 10.6511 155.881 10.6042 155.299 10.6089C154.43 10.5793 153.563 10.7025 152.737 10.9729C152.286 11.1184 151.857 11.3257 151.463 11.5889C151.292 11.4276 151.137 11.2493 151.001 11.0569C150.8 10.7809 150.697 10.446 150.707 10.1049C150.71 9.83439 150.782 9.56915 150.917 9.33486C151.097 9.04614 151.354 8.8134 151.659 8.66286C152.108 8.43542 152.59 8.27954 153.087 8.20086C153.837 8.077 154.596 8.02077 155.355 8.03285C156.368 8.02302 157.378 8.13109 158.365 8.35486C159.203 8.54066 159.997 8.88778 160.703 9.37686C161.363 9.85139 161.889 10.4883 162.23 11.2259C162.616 12.0978 162.802 13.0448 162.776 13.9979L162.777 22.4209ZM159.612 16.2049C159.426 16.1675 159.075 16.1115 158.562 16.0369C157.795 15.948 157.024 15.9103 156.252 15.9239C155.293 15.8531 154.333 16.0519 153.48 16.4979C153.19 16.6967 152.957 16.9681 152.805 17.285C152.653 17.6019 152.586 17.9532 152.612 18.3039C152.608 18.6211 152.67 18.9358 152.794 19.2279C152.928 19.523 153.148 19.7713 153.424 19.9409C153.798 20.1657 154.211 20.3177 154.642 20.3889C155.275 20.5021 155.917 20.5537 156.56 20.5429C157.243 20.5512 157.926 20.5178 158.605 20.4429C159.105 20.3769 159.446 20.3269 159.614 20.2879L159.612 16.2049Z" fill="#1E1E1E"/>
<path d="M140.708 12.4801C140.356 11.5981 139.828 10.7976 139.154 10.1281C138.482 9.46804 137.687 8.94472 136.815 8.58707C135.882 8.20698 134.883 8.01693 133.875 8.02807C132.797 8.01434 131.726 8.19454 130.711 8.56007C129.794 8.89219 128.962 9.42285 128.274 10.1141C127.579 10.8335 127.045 11.6925 126.706 12.6341C126.314 13.744 126.125 14.9152 126.146 16.0921V28.0461C126.24 28.0834 126.426 28.1441 126.705 28.2281C127.005 28.3154 127.317 28.3582 127.629 28.3551C128.077 28.3825 128.52 28.2593 128.889 28.0051C129.048 27.8643 129.17 27.6884 129.248 27.4914C129.326 27.2945 129.357 27.082 129.337 26.8711V20.7101C129.86 21.3525 130.52 21.8692 131.269 22.2221C132.151 22.6473 133.12 22.859 134.099 22.8401C135.074 22.8502 136.04 22.6646 136.941 22.2941C137.791 21.9414 138.562 21.4226 139.209 20.7681C139.864 20.0975 140.378 19.3026 140.721 18.4301C141.093 17.4805 141.279 16.468 141.267 15.4481C141.277 14.4317 141.087 13.4233 140.708 12.4801ZM137.656 17.2421C137.462 17.7814 137.162 18.2765 136.774 18.6981C136.388 19.1105 135.921 19.4393 135.402 19.6641C134.85 19.9018 134.254 20.0211 133.652 20.0141C133.042 20.0226 132.436 19.9033 131.874 19.6641C131.358 19.4416 130.896 19.1124 130.516 18.6981C130.133 18.2724 129.834 17.7785 129.634 17.2421C129.205 16.0619 129.205 14.7682 129.634 13.5881C129.83 13.0625 130.133 12.5833 130.524 12.1807C130.914 11.7782 131.384 11.4609 131.903 11.2491C132.458 11.0203 133.053 10.906 133.653 10.9131C134.254 10.9065 134.851 11.0258 135.403 11.2631C135.919 11.4858 136.386 11.8095 136.775 12.2151C137.163 12.6258 137.463 13.1114 137.657 13.6421C137.865 14.2115 137.97 14.8137 137.965 15.4201C137.972 16.0422 137.867 16.6605 137.657 17.2461L137.656 17.2421Z" fill="#1E1E1E"/>
<path d="M28.508 8.07281C27.1587 5.51179 25.1027 3.39189 22.5842 1.96492C20.0656 0.537954 17.1903 -0.136107 14.3 0.0228086C11.0048 0.203261 7.85909 1.45665 5.3427 3.59179C2.82631 5.72692 1.07734 8.62658 0.362722 11.8484C-0.351898 15.0703 0.00704145 18.4375 1.38469 21.4363C2.76235 24.4351 5.08308 26.901 7.99297 28.4578C8.20462 28.5594 8.4353 28.6153 8.66997 28.6218C8.91417 28.6224 9.15411 28.5578 9.36504 28.4348C9.57598 28.3117 9.75035 28.1347 9.87005 27.9218L11.346 24.7748L11.336 24.7518L6.70501 14.0398C6.54614 13.6889 6.45882 13.3099 6.44805 12.9248C6.4383 12.3009 6.66558 11.6966 7.08404 11.2338C7.50145 10.7922 8.07664 10.5337 8.68401 10.5148C8.97418 10.4857 9.26686 10.533 9.53313 10.6519C9.79941 10.7708 10.03 10.9573 10.202 11.1928C10.5232 11.6716 10.7782 12.1917 10.96 12.7388L13.522 19.5798L13.537 19.6208L17.6091 9.39681L15.581 9.37581L21.754 4.81381L23.163 12.3658L21.608 10.9768L13.5459 30.1678C12.8792 31.7272 12.5522 33.4107 12.5867 35.1063C12.6212 36.802 13.0164 38.4708 13.746 40.0018C13.746 40.0018 12.774 34.8258 19.814 29.9588C24.075 26.7368 28.671 24.6238 30.028 17.5778C30.5767 14.3285 30.0426 10.989 28.508 8.07281Z" fill="#F00E4B"/>
</g>
<defs>
<clipPath id="clip0_4652_7502">
<rect width="162.774" height="40" fill="white"/>
</clipPath>
</defs>
</svg>
