<svg width="16" height="16" viewBox="0 0 16 16" fill="none" xmlns="http://www.w3.org/2000/svg">
<path d="M15.1354 7.52959L10.4687 2.86292C10.343 2.74148 10.1746 2.67429 9.99979 2.67581C9.825 2.67733 9.65779 2.74744 9.53418 2.87104C9.41058 2.99465 9.34047 3.16186 9.33895 3.33666C9.33743 3.51145 9.40462 3.67985 9.52606 3.80559L13.0547 7.33426H1.33073C1.15392 7.33426 0.984349 7.40449 0.859325 7.52952C0.7343 7.65454 0.664063 7.82411 0.664062 8.00092C0.664063 8.17773 0.7343 8.3473 0.859325 8.47233C0.984349 8.59735 1.15392 8.66759 1.33073 8.66759H13.0547L9.52606 12.1963C9.46239 12.2578 9.4116 12.3313 9.37666 12.4127C9.34172 12.494 9.32333 12.5815 9.32256 12.67C9.32179 12.7585 9.33866 12.8463 9.37218 12.9282C9.4057 13.0102 9.4552 13.0846 9.5178 13.1472C9.58039 13.2098 9.65483 13.2593 9.73676 13.2928C9.81869 13.3263 9.90648 13.3432 9.995 13.3424C10.0835 13.3417 10.171 13.3233 10.2523 13.2883C10.3337 13.2534 10.4072 13.2026 10.4687 13.1389L15.1354 8.47226C15.2604 8.34724 15.3306 8.1777 15.3306 8.00092C15.3306 7.82415 15.2604 7.65461 15.1354 7.52959Z" fill="#790F7C"/>
</svg>
